# xmcd CD database file
#
# Track frame offsets:
#	183
#	24065
#	60733
#	79523
#	98580
#	109938
#	125955
#	160173
#	183703
#
# Disc length: 2665 seconds
#
# Revision: 0
# Processed by: cddbd v1.4PL0 Copyright (c) Steve Scherf et al.
# Submitted via: CDex 1.40Release
#
DISCID=6d0a6709
DTITLE=BB King and Ray Charles - live i milano 1990 cd1
DYEAR=1900
DGENRE=Blues
TTITLE0=Intro/When Love Comes To Town
TTITLE1=Wake Up This Morning
TTITLE2=Please Send Me Someone To Love
TTITLE3=Since I Met You Baby
TTITLE4=Don't Be Untreated Baby
TTITLE5=Ain't Nobody Is Bussiness If I Do
TTITLE6=Sweet Sixteen
TTITLE7=The Thrill Is Gone
TTITLE8=Crew For The Bis/Peace To The World
EXTD=ID3G: 0
EXTT0=
EXTT1=
EXTT2=
EXTT3=
EXTT4=
EXTT5=
EXTT6=
EXTT7=
EXTT8=
PLAYORDER=
